<svg width="25" height="33" viewBox="0 0 25 33" fill="none" xmlns="http://www.w3.org/2000/svg">
<path fill-rule="evenodd" clip-rule="evenodd" d="M20 4.4H22.5C23.163 4.4 23.7989 4.74768 24.2678 5.36655C24.7366 5.98542 25 6.82479 25 7.7V29.7C25 30.5752 24.7366 31.4146 24.2678 32.0335C23.7989 32.6523 23.163 33 22.5 33H2.5C1.83696 33 1.20107 32.6523 0.732233 32.0335C0.263392 31.4146 0 30.5752 0 29.7L0 7.7C0 6.82479 0.263392 5.98542 0.732233 5.36655C1.20107 4.74768 1.83696 4.4 2.5 4.4H5V0H6.66667V4.4H18.3333V0H20V4.4ZM10 17.6H5V15.4H10V17.6ZM20 15.4H15V17.6H20V15.4ZM10 24.2H5V22H10V24.2ZM15 24.2H20V22H15V24.2Z" fill="#81459D"/>
</svg>
